<svg height="512pt" viewBox="-46 0 512 512" width="512pt" xmlns="http://www.w3.org/2000/svg"><path d="m410 116v40c0 11.050781-8.949219 20-20 20-80.882812 0-272.480469 0-360 0-11.050781 0-20-8.949219-20-20v-40c0-11.050781 8.949219-20 20-20h360c11.050781 0 20 8.949219 20 20zm0 0" fill="#a0e4f8"/><path d="m270 10-59.308594 65.238281-60.691406-65.238281-80 86h280zm0 0" fill="#425072"/><path d="m30 176c36.539062 198.714844 22.570312 122.730469 56.941406 309.691406 1.769532 9.457032 10.027344 16.308594 19.660156 16.308594h206.796876c9.632812 0 17.890624-6.851562 19.660156-16.308594 9.433594-51.300781 45.917968-249.773437 56.941406-309.691406-80.882812 0-272.480469 0-360 0zm0 0" fill="#fff"/><path d="m210 126c-5.519531 0-10 4.480469-10 10s4.480469 10 10 10 10-4.480469 10-10-4.480469-10-10-10zm0 0"/><path d="m390 86h-35.644531l-77.035157-82.8125c-1.890624-2.035156-4.542968-3.1875-7.320312-3.1875-.019531 0-.039062 0-.058594 0-2.796875.015625-5.460937 1.203125-7.339844 3.273438l-51.996093 57.195312-53.285157-57.28125c-1.890624-2.03125-4.542968-3.1875-7.320312-3.1875s-5.429688 1.15625-7.320312 3.1875l-77.035157 82.8125h-35.644531c-16.542969 0-30 13.457031-30 30v40c0 13.566406 9.058594 25.054688 21.441406 28.75l55.667969 302.777344c2.65625 14.183594 15.054687 24.472656 29.492187 24.472656h206.796876c14.4375 0 26.835937-10.289062 29.496093-24.5l55.664063-302.75c12.382812-3.695312 21.441406-15.183594 21.441406-28.75v-40c0-16.542969-13.457031-30-30-30zm-119.914062-61.226562 56.953124 61.226562h-92.683593l-10.082031-10.835938zm-120.085938-.089844 57.039062 61.316406h-114.078124zm148.699219 161.316406-7.363281 60h-71.335938v-60zm68.261719 60h-55.476563l7.363281-60h59.144532zm-14.707032 80h-50.582031l7.359375-60h54.253906zm-15.261718 83h-45.503907l7.730469-63h49.359375zm-116.992188 83v-63h48.882812l-7.730468 63zm-61.152344 0-7.730468-63h48.882812v63zm41.152344-166h-61.519531l-7.363281-60h68.882812zm20-60h68.882812l-7.363281 60h-61.519531zm-101.671875 60h-50.582031l-11.03125-60h54.253906zm-46.902344 20h49.359375l7.730469 63h-45.507813zm69.507813 0h59.066406v63h-51.335938zm79.066406 63v-63h59.066406l-7.730468 63zm-20-163h-71.335938l-7.363281-60h78.699219zm-98.847656-60 7.363281 60h-55.476563l-11.03125-60zm-4.378906 297.882812-10.089844-54.882812h44.285156l7.730469 63h-32.097657c-4.816406 0-8.949218-3.425781-9.828124-8.117188zm216.625 8.117188h-32.097657l7.730469-63h44.285156l-10.085937 54.851562c-.882813 4.722657-5.015625 8.148438-9.832031 8.148438zm86.601562-336c0 5.515625-4.484375 10-10 10h-360c-5.515625 0-10-4.484375-10-10v-40c0-5.515625 4.484375-10 10-10h360c5.515625 0 10 4.484375 10 10zm0 0"/><path d="m350 126h-100c-5.523438 0-10 4.476562-10 10s4.476562 10 10 10h100c5.523438 0 10-4.476562 10-10s-4.476562-10-10-10zm0 0"/></svg>