<svg height="512" viewBox="0 0 60 60" width="512" xmlns="http://www.w3.org/2000/svg"><g id="Page-1" fill="none" fill-rule="evenodd"><g id="009---Pencil" fill-rule="nonzero" transform="translate(0 -1)"><path id="Shape" d="m41.1599783 7.58026042h16c2.209139 0 4 1.79086101 4 3.99999998v4.519h-24v-4.519c0-2.20913897 1.790861-3.99999998 4-3.99999998z" fill="#e91e63" transform="matrix(.707 .707 -.707 .707 22.771 -31.294)"/><path id="Shape" d="m57.828 14.485-11.313-11.313c-1.1352583-1.13615004-2.8399919-1.48308241-4.329-.881.4976351.20150109.9496134.50111953 1.329.881l11.313 11.313c.7501901.7501514 1.1716458 1.7675983 1.1716458 2.8285s-.4214557 2.0783486-1.1716458 2.8285l-1.694 1.694 1.5 1.5 3.194-3.194c.7501901-.7501514 1.1716458-1.7675983 1.1716458-2.8285s-.4214557-2.0783486-1.1716458-2.8285z" fill="#ad1457"/><rect id="Rectangle-path" fill="#7f8e94" height="6.968" rx="1" transform="matrix(.707 .707 -.707 .707 25.038 -25.818)" width="28" x="29.685" y="13.83"/><path id="Shape" d="m55.341 24.043-18.384-18.384c-.1875683-.18777704-.4420908-.29328666-.7075-.29328666s-.5199317.10550962-.7075.29328666l-.792.792 17.591 17.592c.187777.1875683.2932867.4420908.2932867.7075s-.1055097.5199317-.2932867.7075l-2.72 2.72.793.793c.3904999.3903819 1.0235001.3903819 1.414 0l3.513-3.513c.187777-.1875683.2932867-.4420908.2932867-.7075s-.1055097-.5199317-.2932867-.7075z" fill="#545c60"/><path id="Shape" d="m22.1 55.87c.8835075-1.6224472.5941887-3.6328237-.7109713-4.9402937s-3.3150217-1.6003434-4.9390287-.7197063c.8249356-1.6338721.5369804-3.6095651-.72-4.94-1.3304349-1.2569804-3.3061279-1.5449356-4.94-.72.8249356-1.6338721.5369804-3.6095651-.72-4.94-1.33149424-1.2561537-3.30862843-1.5403167-4.94-.71l27.61-27.61 16.97 16.97z" fill="#02a9f4"/><path id="Shape" d="m49.71 28.26-16.97-16.97-1.5 1.5 15.47 15.47-24.31 24.309c.2982795 1.100444.1918304 2.2713842-.3 3.3z" fill="#0377bc"/><path id="Shape" d="m8.78 59.13-5.44.84c-.64013418.1100714-1.29385453-.0975732-1.75314065-.5568594-.45928612-.4592861-.66693078-1.1130064-.55685935-1.7531406l.84-5.44c1.77164902.1742511 3.42518976.9673841 4.67 2.24 1.27261587 1.2448102 2.06574891 2.898351 2.24 4.67z" fill="#607d8b"/><path id="Shape" d="m22.1 55.87-.01.01-.49.49c-.5985762.5991856-1.3728476.9915765-2.21 1.12l-10.61 1.64c-.17425109-1.771649-.96738413-3.4251898-2.24-4.67-1.24481024-1.2726159-2.89835098-2.0657489-4.67-2.24l1.64-10.61c.12842355-.8371524.52081445-1.6114238 1.12-2.21l.49-.49.01-.01c1.63137157-.8303167 3.60850576-.5461537 4.94.71 1.2569804 1.3304349 1.5449356 3.3061279.72 4.94 1.6338721-.8249356 3.6095651-.5369804 4.94.72 1.2569804 1.3304349 1.5449356 3.3061279.72 4.94 1.624007-.8806371 3.6338687-.5877637 4.9390287.7197063s1.5944788 3.3178465.7109713 4.9402937z" fill="#ffe0b2"/><path id="Shape" d="m21.39 50.93c-1.1634149-1.1493007-2.8910377-1.5128873-4.419-.93.5332524.2060716 1.0168499.5226763 1.419.929 1.2561537 1.3314942 1.5403167 3.3086284.71 4.94l-.01.01-.49.49c-.5985762.5991856-1.3728476.9915765-2.21 1.12l-7.67 1.187c.023.151.047.3.06.454l10.61-1.64c.8371524-.1284235 1.6114238-.5208144 2.21-1.12l.49-.49.01-.01c.8303167-1.6313716.5461537-3.6085058-.71-4.94z" fill="#dfc49c"/><path id="Shape" d="m47.222 2.464c-1.9547793-1.94828543-5.1172207-1.94828543-7.072 0l-2.486 2.488c-.7910932-.75696271-2.0379068-.75696271-2.829 0l-3.513 3.512c-.375248.37509602-.5860729.88392663-.5860729 1.4145 0 .5305734.2108249 1.039404.5860729 1.4145l-26.908 26.907-.487.487c-.7537191.7503106-1.24687914 1.7226105-1.407 2.774l-2.475 16.028c-.15071287.8718808.09114613 1.7658265.66090042 2.4427833s1.40928868 1.0678747 2.29409958 1.0682167c.16593827.0001299.33156976-.0142583.495-.043l16.043-2.477c1.0509763-.1598451 2.0229429-.6526634 2.773-1.406l.486-.487 26.91-26.91c.7809997.7807639 2.0470003.7807639 2.828 0l3.514-3.513c.375248-.375096.5860729-.8839266.5860729-1.4145s-.2108249-1.039404-.5860729-1.4145l2.486-2.487c1.9525763-1.9526137 1.9525763-5.1183863 0-7.071zm-14.485 10.243 4.246 4.246-24.783 24.782c-.3251125-2.1939403-2.0418532-3.9200067-4.234-4.257zm-14.878 34.669c-.3311178-2.1875428-2.0483791-3.9043987-4.236-4.235l24.777-24.774 4.233 4.233zm-14.688 11.609c-.32329334.055683-.65333752-.0507433-.88320189-.2847979-.22986436-.2340546-.33031167-.5659673-.26879811-.8882021l.681-4.433c1.18520301.3028582 2.2657494.9222885 3.126 1.792.87107224.8608776 1.49155769 1.9424926 1.795 3.129zm16.062-2.485-9.624 1.49c-.37308438-1.6061263-1.19340297-3.0737546-2.366-4.233-1.15921198-1.1726409-2.62685381-1.9929671-4.233-2.366l1.49-9.624c.09431601-.631265.38875704-1.2155902.84-1.667l.366-.365c1.2198302-.5849799 2.67419993-.3557824 3.655.576.9574257 1.0205287 1.1729353 2.531495.539 3.779-.20594307.3870332-.13577323.8630791.1730832 1.1742301.3088564.3111511.7843698.3848426 1.1729168.1817699 1.2462801-.6355962 2.7570717-.4233659 3.78.531.9537783 1.0206046 1.1671864 2.5288487.534 3.774-.2061784.3874047-.1356804.8639667.1738309 1.1750852.3095112.3111185.7857017.3840839 1.1741691.1799148 1.2456658-.6352592 2.7557086-.4230218 3.778.531.9328804.9817541 1.1628392 2.4374968.578 3.659l-.365.364c-.4508089.4515176-1.0349171.7460259-1.666.84zm4.288-3.469c-.3371654-2.1911317-2.06292-3.9067491-4.256-4.231l24.782-24.782 4.245 4.245zm27.6-24.769-18.385-18.384 3.514-3.512.707.707 16.971 16.97.707.707zm6-8.83-2.486 2.487-15.557-15.553 2.486-2.488c1.1730963-1.16917333 3.0709037-1.16917333 4.244 0l11.313 11.314c.562719.5626237.8788593 1.3257625.8788593 2.1215s-.3161403 1.5588763-.8788593 2.1215z" fill="#000"/></g></g></svg>